<?xml version="1.0" encoding="UTF-8" standalone="no"?>
<!DOCTYPE svg PUBLIC "-//W3C//DTD SVG 1.1//EN" "http://www.w3.org/Graphics/SVG/1.1/DTD/svg11.dtd">
<svg width="100%" height="100%" viewBox="0 0 1024 1024" version="1.1" xmlns="http://www.w3.org/2000/svg" xmlns:xlink="http://www.w3.org/1999/xlink" xml:space="preserve" xmlns:serif="http://www.serif.com/" style="fill-rule:evenodd;clip-rule:evenodd;stroke-linejoin:round;stroke-miterlimit:2;">
    <g id="Background">
        <rect x="0" y="0" width="1024" height="1024" rx="140" style="fill:#f4f6fa;"/>
        <g transform="matrix(1.25 0 0 1.25 -127.46 -128.41)">
        <path d="M807.653,577.674C808.152,577.971 808.652,578.267 809.152,578.564C807.016,594.054 811.592,647.286 806.177,666.415C797.43,697.312 781.417,703.607 725.765,735.958C559.191,832.787 559.882,833.905 545.253,842.065C541.817,843.981 521.847,855.119 496.583,849.121C484.331,846.212 484.52,845.242 249.235,706.964C220.268,689.941 215.364,660.883 215.249,649.502C214.106,536.423 215.783,524.249 217.269,513.467C228.646,430.895 271.878,422.426 279.32,419.113C281.924,417.954 279.515,382.046 280.819,379.645C281.778,377.879 349.578,338.846 381.652,319.746C386.919,316.609 440.021,284.987 447.647,280.786C502.865,250.362 504.494,240.441 553.472,233.446C556.625,232.996 552.952,231.892 535.216,220.969C508.291,204.387 495.261,217.871 480.311,226.152C455.212,240.054 375.769,287.47 366.719,292.872C328.887,315.452 267.271,351.428 266.687,351.787C238.533,369.133 241.561,376.732 241.516,421.5C241.51,426.759 239.33,425.845 229.94,437.839C218.6,452.323 215.305,467.953 214.777,462.423C214.488,459.403 215.261,459.438 215.26,424.501C215.259,392.866 210.519,358.998 242.814,335.905C250.634,330.314 323.045,287.624 377.737,255.526C407.9,237.823 432.674,223.342 438.251,220.082C482.1,194.451 505.59,172.238 548.714,198.138C549.954,198.883 738.68,310.232 755.199,319.979C777.883,333.362 808.542,346.758 808.732,391.5C809.209,503.985 808.671,509.328 807.643,519.518C798.497,610.193 749.653,620.58 744.693,622.89C741.686,624.29 745.245,649.167 742.202,651.03C732.856,656.753 732.843,656.625 562.217,757.032C512.557,786.255 493.308,798.223 463.415,800.235C459.523,800.497 463.478,802.203 471.757,807.067C497.71,822.313 498.574,823.218 509.529,824.109C524.236,825.305 525.882,822.557 584.697,787.841C747.377,691.819 747.703,692.421 761.757,683.92C796.141,663.12 776.303,623.235 784.644,614.629C802.082,596.637 806.857,579.652 807.653,577.674Z" style="fill:#3a7d68;"/>
        <path d="M347.677,436.324C323.758,413.273 311.523,419.564 307.642,416.286C306.189,415.058 306.736,395.691 307.368,394.419C308.004,393.137 397.315,341.337 477.287,294.149C510.275,274.684 547.016,247.12 602.568,264.287C613.181,267.566 619.484,269.514 723.77,332.013C760.171,353.828 778.897,359.94 782.036,383.567C783.819,396.982 782.675,487.467 782.561,496.501C781.489,581.298 744.975,596.438 743.825,595.235C743.004,594.375 743.755,384.622 743.437,380.508C743.269,378.334 741.424,377.968 724.703,368.18C578.034,282.327 578.437,281.647 565.437,274.621C560.256,271.822 536.094,278.084 528.788,281.869C527.404,282.586 531.413,284.949 531.715,285.127C690.497,378.742 690.687,378.388 704.409,386.668C715.953,393.634 717.275,393.234 717.275,396.495C717.268,461.829 717.261,527.164 717.254,592.498C717.267,597.847 718.651,600.955 713.458,599.681C650.493,584.236 649.549,404.698 584.432,393.9C550.697,388.307 533.64,424.883 527.88,435.694C502.209,483.882 474.999,643.578 433.092,609.952C398.657,582.322 392.66,484.306 347.677,436.324Z" style="fill:#f4f6fa;"/>
        <path d="M280.458,476.5C280.379,647.616 280.448,649.396 280.999,650.172C281.694,651.151 462.585,757.839 465.518,758.338C470.711,759.223 498.869,749.73 496.407,746.581C495.506,745.428 417.135,699.987 410.217,695.977C401.972,691.196 310.243,638.01 307.66,635.351C306.546,634.204 306.949,633.858 306.887,508.503C306.855,442.95 306.899,442.848 307.43,442.403C308.375,441.61 325.728,443.89 339.06,463.783C377.307,520.853 387.673,645.983 450.501,636.508C519.338,626.128 527.385,423.935 575.458,416.22C617.109,409.535 628.928,567.221 681.829,610.077C702.624,626.923 716.806,622.908 717.114,626.541C717.701,633.474 718.348,634.614 712.254,638.063C668.81,662.653 511.958,758.016 490.532,766.576C429.615,790.914 381.93,754.322 354.239,737.919C263.075,683.916 252.07,682.114 244.606,663.455C241.041,654.543 240.524,653.251 241.52,543.5C241.656,528.47 242.125,487.883 264.974,457.894C268.412,453.381 277.93,446.146 279.484,446.563C280.631,446.871 280.431,448.432 280.458,476.5Z" style="fill:#f4f6fa;"/>
        <path d="M807.653,577.674C808.011,577.669 808.142,577.018 808.5,577.012C808.5,577.012 809.099,578.44 809.152,578.564C808.652,578.267 808.152,577.971 807.653,577.674Z" style="fill:#f4f6fa;"/>
        </g>
    </g>
</svg>
